v 4.47222 -2.76385 -5
v 7.52778 -2.76385 -5
v 7.52778 -1.84257 -5
v 4.47222 -1.84257 -5
v 4.47222 -2.76385 -3.33333
v 7.52778 -2.76385 -3.33333
v 7.52778 -1.84257 -3.33333
v 4.47222 -1.84257 -3.33333
v 3.60643 -1.84257 -5
v 8.39357 -1.84257 -5
v 8.39357 -0.921285 -5
v 3.60643 -0.921285 -5
v 3.60643 -1.84257 -3.33333
v 8.39357 -1.84257 -3.33333
v 8.39357 -0.921285 -3.33333
v 3.60643 -0.921285 -3.33333
v 3.2748 -0.921285 -5
v 8.7252 -0.921285 -5
v 8.7252 -1.11022e-16 -5
v 3.2748 -1.11022e-16 -5
v 3.2748 -0.921285 -3.33333
v 8.7252 -0.921285 -3.33333
v 8.7252 -1.11022e-16 -3.33333
v 3.2748 -1.11022e-16 -3.33333
v 3.2748 -1.11022e-16 -5
v 8.7252 -1.11022e-16 -5
v 8.7252 0.921285 -5
v 3.2748 0.921285 -5
v 3.2748 -1.11022e-16 -3.33333
v 8.7252 -1.11022e-16 -3.33333
v 8.7252 0.921285 -3.33333
v 3.2748 0.921285 -3.33333
v 3.60643 0.921285 -5
v 8.39357 0.921285 -5
v 8.39357 1.84257 -5
v 3.60643 1.84257 -5
v 3.60643 0.921285 -3.33333
v 8.39357 0.921285 -3.33333
v 8.39357 1.84257 -3.33333
v 3.60643 1.84257 -3.33333
v 4.47222 1.84257 -5
v 7.52778 1.84257 -5
v 7.52778 2.76385 -5
v 4.47222 2.76385 -5
v 4.47222 1.84257 -3.33333
v 7.52778 1.84257 -3.33333
v 7.52778 2.76385 -3.33333
v 4.47222 2.76385 -3.33333
v 3.60643 -4.33013 -3.33333
v 8.39357 -4.33013 -3.33333
v 8.39357 -2.88675 -3.33333
v 3.60643 -2.88675 -3.33333
v 3.60643 -4.33013 -1.66667
v 8.39357 -4.33013 -1.66667
v 8.39357 -2.88675 -1.66667
v 3.60643 -2.88675 -1.66667
v 2.25 -2.88675 -3.33333
v 9.75 -2.88675 -3.33333
v 9.75 -1.44338 -3.33333
v 2.25 -1.44338 -3.33333
v 2.25 -2.88675 -1.66667
v 9.75 -2.88675 -1.66667
v 9.75 -1.44338 -1.66667
v 2.25 -1.44338 -1.66667
v 1.73044 -1.44338 -3.33333
v 10.2696 -1.44338 -3.33333
v 10.2696 0 -3.33333
v 1.73044 0 -3.33333
v 1.73044 -1.44338 -1.66667
v 10.2696 -1.44338 -1.66667
v 10.2696 0 -1.66667
v 1.73044 0 -1.66667
v 1.73044 0 -3.33333
v 10.2696 0 -3.33333
v 10.2696 1.44338 -3.33333
v 1.73044 1.44338 -3.33333
v 1.73044 0 -1.66667
v 10.2696 0 -1.66667
v 10.2696 1.44338 -1.66667
v 1.73044 1.44338 -1.66667
v 2.25 1.44338 -3.33333
v 9.75 1.44338 -3.33333
v 9.75 2.88675 -3.33333
v 2.25 2.88675 -3.33333
v 2.25 1.44338 -1.66667
v 9.75 1.44338 -1.66667
v 9.75 2.88675 -1.66667
v 2.25 2.88675 -1.66667
v 3.60643 2.88675 -3.33333
v 8.39357 2.88675 -3.33333
v 8.39357 4.33013 -3.33333
v 3.60643 4.33013 -3.33333
v 3.60643 2.88675 -1.66667
v 8.39357 2.88675 -1.66667
v 8.39357 4.33013 -1.66667
v 3.60643 4.33013 -1.66667
v 3.2748 -4.93007 -1.66667
v 8.7252 -4.93007 -1.66667
v 8.7252 -3.28671 -1.66667
v 3.2748 -3.28671 -1.66667
v 3.2748 -4.93007 2.22045e-16
v 8.7252 -4.93007 2.22045e-16
v 8.7252 -3.28671 2.22045e-16
v 3.2748 -3.28671 2.22045e-16
v 1.73044 -3.28671 -1.66667
v 10.2696 -3.28671 -1.66667
v 10.2696 -1.64336 -1.66667
v 1.73044 -1.64336 -1.66667
v 1.73044 -3.28671 2.22045e-16
v 10.2696 -3.28671 2.22045e-16
v 10.2696 -1.64336 2.22045e-16
v 1.73044 -1.64336 2.22045e-16
v 1.13889 -1.64336 -1.66667
v 10.8611 -1.64336 -1.66667
v 10.8611 -2.22045e-16 -1.66667
v 1.13889 -2.22045e-16 -1.66667
v 1.13889 -1.64336 2.22045e-16
v 10.8611 -1.64336 2.22045e-16
v 10.8611 -2.22045e-16 2.22045e-16
v 1.13889 -2.22045e-16 2.22045e-16
v 1.13889 -2.22045e-16 -1.66667
v 10.8611 -2.22045e-16 -1.66667
v 10.8611 1.64336 -1.66667
v 1.13889 1.64336 -1.66667
v 1.13889 -2.22045e-16 2.22045e-16
v 10.8611 -2.22045e-16 2.22045e-16
v 10.8611 1.64336 2.22045e-16
v 1.13889 1.64336 2.22045e-16
v 1.73044 1.64336 -1.66667
v 10.2696 1.64336 -1.66667
v 10.2696 3.28671 -1.66667
v 1.73044 3.28671 -1.66667
v 1.73044 1.64336 2.22045e-16
v 10.2696 1.64336 2.22045e-16
v 10.2696 3.28671 2.22045e-16
v 1.73044 3.28671 2.22045e-16
v 3.2748 3.28671 -1.66667
v 8.7252 3.28671 -1.66667
v 8.7252 4.93007 -1.66667
v 3.2748 4.93007 -1.66667
v 3.2748 3.28671 2.22045e-16
v 8.7252 3.28671 2.22045e-16
v 8.7252 4.93007 2.22045e-16
v 3.2748 4.93007 2.22045e-16
v 3.2748 -4.93007 2.22045e-16
v 8.7252 -4.93007 2.22045e-16
v 8.7252 -3.28671 2.22045e-16
v 3.2748 -3.28671 2.22045e-16
v 3.2748 -4.93007 1.66667
v 8.7252 -4.93007 1.66667
v 8.7252 -3.28671 1.66667
v 3.2748 -3.28671 1.66667
v 1.73044 -3.28671 2.22045e-16
v 10.2696 -3.28671 2.22045e-16
v 10.2696 -1.64336 2.22045e-16
v 1.73044 -1.64336 2.22045e-16
v 1.73044 -3.28671 1.66667
v 10.2696 -3.28671 1.66667
v 10.2696 -1.64336 1.66667
v 1.73044 -1.64336 1.66667
v 1.13889 -1.64336 2.22045e-16
v 10.8611 -1.64336 2.22045e-16
v 10.8611 0 2.22045e-16
v 1.13889 0 2.22045e-16
v 1.13889 -1.64336 1.66667
v 10.8611 -1.64336 1.66667
v 10.8611 0 1.66667
v 1.13889 0 1.66667
v 1.13889 0 2.22045e-16
v 10.8611 0 2.22045e-16
v 10.8611 1.64336 2.22045e-16
v 1.13889 1.64336 2.22045e-16
v 1.13889 0 1.66667
v 10.8611 0 1.66667
v 10.8611 1.64336 1.66667
v 1.13889 1.64336 1.66667
v 1.73044 1.64336 2.22045e-16
v 10.2696 1.64336 2.22045e-16
v 10.2696 3.28671 2.22045e-16
v 1.73044 3.28671 2.22045e-16
v 1.73044 1.64336 1.66667
v 10.2696 1.64336 1.66667
v 10.2696 3.28671 1.66667
v 1.73044 3.28671 1.66667
v 3.2748 3.28671 2.22045e-16
v 8.7252 3.28671 2.22045e-16
v 8.7252 4.93007 2.22045e-16
v 3.2748 4.93007 2.22045e-16
v 3.2748 3.28671 1.66667
v 8.7252 3.28671 1.66667
v 8.7252 4.93007 1.66667
v 3.2748 4.93007 1.66667
v 3.60643 -4.33013 1.66667
v 8.39357 -4.33013 1.66667
v 8.39357 -2.88675 1.66667
v 3.60643 -2.88675 1.66667
v 3.60643 -4.33013 3.33333
v 8.39357 -4.33013 3.33333
v 8.39357 -2.88675 3.33333
v 3.60643 -2.88675 3.33333
v 2.25 -2.88675 1.66667
v 9.75 -2.88675 1.66667
v 9.75 -1.44338 1.66667
v 2.25 -1.44338 1.66667
v 2.25 -2.88675 3.33333
v 9.75 -2.88675 3.33333
v 9.75 -1.44338 3.33333
v 2.25 -1.44338 3.33333
v 1.73044 -1.44338 1.66667
v 10.2696 -1.44338 1.66667
v 10.2696 2.22045e-16 1.66667
v 1.73044 2.22045e-16 1.66667
v 1.73044 -1.44338 3.33333
v 10.2696 -1.44338 3.33333
v 10.2696 2.22045e-16 3.33333
v 1.73044 2.22045e-16 3.33333
v 1.73044 2.22045e-16 1.66667
v 10.2696 2.22045e-16 1.66667
v 10.2696 1.44338 1.66667
v 1.73044 1.44338 1.66667
v 1.73044 2.22045e-16 3.33333
v 10.2696 2.22045e-16 3.33333
v 10.2696 1.44338 3.33333
v 1.73044 1.44338 3.33333
v 2.25 1.44338 1.66667
v 9.75 1.44338 1.66667
v 9.75 2.88675 1.66667
v 2.25 2.88675 1.66667
v 2.25 1.44338 3.33333
v 9.75 1.44338 3.33333
v 9.75 2.88675 3.33333
v 2.25 2.88675 3.33333
v 3.60643 2.88675 1.66667
v 8.39357 2.88675 1.66667
v 8.39357 4.33013 1.66667
v 3.60643 4.33013 1.66667
v 3.60643 2.88675 3.33333
v 8.39357 2.88675 3.33333
v 8.39357 4.33013 3.33333
v 3.60643 4.33013 3.33333
v 4.47222 -2.76385 3.33333
v 7.52778 -2.76385 3.33333
v 7.52778 -1.84257 3.33333
v 4.47222 -1.84257 3.33333
v 4.47222 -2.76385 5
v 7.52778 -2.76385 5
v 7.52778 -1.84257 5
v 4.47222 -1.84257 5
v 3.60643 -1.84257 3.33333
v 8.39357 -1.84257 3.33333
v 8.39357 -0.921285 3.33333
v 3.60643 -0.921285 3.33333
v 3.60643 -1.84257 5
v 8.39357 -1.84257 5
v 8.39357 -0.921285 5
v 3.60643 -0.921285 5
v 3.2748 -0.921285 3.33333
v 8.7252 -0.921285 3.33333
v 8.7252 -1.11022e-16 3.33333
v 3.2748 -1.11022e-16 3.33333
v 3.2748 -0.921285 5
v 8.7252 -0.921285 5
v 8.7252 -1.11022e-16 5
v 3.2748 -1.11022e-16 5
v 3.2748 -1.11022e-16 3.33333
v 8.7252 -1.11022e-16 3.33333
v 8.7252 0.921285 3.33333
v 3.2748 0.921285 3.33333
v 3.2748 -1.11022e-16 5
v 8.7252 -1.11022e-16 5
v 8.7252 0.921285 5
v 3.2748 0.921285 5
v 3.60643 0.921285 3.33333
v 8.39357 0.921285 3.33333
v 8.39357 1.84257 3.33333
v 3.60643 1.84257 3.33333
v 3.60643 0.921285 5
v 8.39357 0.921285 5
v 8.39357 1.84257 5
v 3.60643 1.84257 5
v 4.47222 1.84257 3.33333
v 7.52778 1.84257 3.33333
v 7.52778 2.76385 3.33333
v 4.47222 2.76385 3.33333
v 4.47222 1.84257 5
v 7.52778 1.84257 5
v 7.52778 2.76385 5
v 4.47222 2.76385 5
f 1 4 3
f 1 3 2
f 5 6 7
f 5 7 8
f 1 2 6
f 1 6 5
f 4 8 7
f 4 7 3
f 1 5 8
f 1 8 4
f 2 3 7
f 2 7 6
f 9 12 11
f 9 11 10
f 13 14 15
f 13 15 16
f 9 10 14
f 9 14 13
f 12 16 15
f 12 15 11
f 9 13 16
f 9 16 12
f 10 11 15
f 10 15 14
f 17 20 19
f 17 19 18
f 21 22 23
f 21 23 24
f 17 18 22
f 17 22 21
f 20 24 23
f 20 23 19
f 17 21 24
f 17 24 20
f 18 19 23
f 18 23 22
f 25 28 27
f 25 27 26
f 29 30 31
f 29 31 32
f 25 26 30
f 25 30 29
f 28 32 31
f 28 31 27
f 25 29 32
f 25 32 28
f 26 27 31
f 26 31 30
f 33 36 35
f 33 35 34
f 37 38 39
f 37 39 40
f 33 34 38
f 33 38 37
f 36 40 39
f 36 39 35
f 33 37 40
f 33 40 36
f 34 35 39
f 34 39 38
f 41 44 43
f 41 43 42
f 45 46 47
f 45 47 48
f 41 42 46
f 41 46 45
f 44 48 47
f 44 47 43
f 41 45 48
f 41 48 44
f 42 43 47
f 42 47 46
f 49 52 51
f 49 51 50
f 53 54 55
f 53 55 56
f 49 50 54
f 49 54 53
f 52 56 55
f 52 55 51
f 49 53 56
f 49 56 52
f 50 51 55
f 50 55 54
f 57 60 59
f 57 59 58
f 61 62 63
f 61 63 64
f 57 58 62
f 57 62 61
f 60 64 63
f 60 63 59
f 57 61 64
f 57 64 60
f 58 59 63
f 58 63 62
f 65 68 67
f 65 67 66
f 69 70 71
f 69 71 72
f 65 66 70
f 65 70 69
f 68 72 71
f 68 71 67
f 65 69 72
f 65 72 68
f 66 67 71
f 66 71 70
f 73 76 75
f 73 75 74
f 77 78 79
f 77 79 80
f 73 74 78
f 73 78 77
f 76 80 79
f 76 79 75
f 73 77 80
f 73 80 76
f 74 75 79
f 74 79 78
f 81 84 83
f 81 83 82
f 85 86 87
f 85 87 88
f 81 82 86
f 81 86 85
f 84 88 87
f 84 87 83
f 81 85 88
f 81 88 84
f 82 83 87
f 82 87 86
f 89 92 91
f 89 91 90
f 93 94 95
f 93 95 96
f 89 90 94
f 89 94 93
f 92 96 95
f 92 95 91
f 89 93 96
f 89 96 92
f 90 91 95
f 90 95 94
f 97 100 99
f 97 99 98
f 101 102 103
f 101 103 104
f 97 98 102
f 97 102 101
f 100 104 103
f 100 103 99
f 97 101 104
f 97 104 100
f 98 99 103
f 98 103 102
f 105 108 107
f 105 107 106
f 109 110 111
f 109 111 112
f 105 106 110
f 105 110 109
f 108 112 111
f 108 111 107
f 105 109 112
f 105 112 108
f 106 107 111
f 106 111 110
f 113 116 115
f 113 115 114
f 117 118 119
f 117 119 120
f 113 114 118
f 113 118 117
f 116 120 119
f 116 119 115
f 113 117 120
f 113 120 116
f 114 115 119
f 114 119 118
f 121 124 123
f 121 123 122
f 125 126 127
f 125 127 128
f 121 122 126
f 121 126 125
f 124 128 127
f 124 127 123
f 121 125 128
f 121 128 124
f 122 123 127
f 122 127 126
f 129 132 131
f 129 131 130
f 133 134 135
f 133 135 136
f 129 130 134
f 129 134 133
f 132 136 135
f 132 135 131
f 129 133 136
f 129 136 132
f 130 131 135
f 130 135 134
f 137 140 139
f 137 139 138
f 141 142 143
f 141 143 144
f 137 138 142
f 137 142 141
f 140 144 143
f 140 143 139
f 137 141 144
f 137 144 140
f 138 139 143
f 138 143 142
f 145 148 147
f 145 147 146
f 149 150 151
f 149 151 152
f 145 146 150
f 145 150 149
f 148 152 151
f 148 151 147
f 145 149 152
f 145 152 148
f 146 147 151
f 146 151 150
f 153 156 155
f 153 155 154
f 157 158 159
f 157 159 160
f 153 154 158
f 153 158 157
f 156 160 159
f 156 159 155
f 153 157 160
f 153 160 156
f 154 155 159
f 154 159 158
f 161 164 163
f 161 163 162
f 165 166 167
f 165 167 168
f 161 162 166
f 161 166 165
f 164 168 167
f 164 167 163
f 161 165 168
f 161 168 164
f 162 163 167
f 162 167 166
f 169 172 171
f 169 171 170
f 173 174 175
f 173 175 176
f 169 170 174
f 169 174 173
f 172 176 175
f 172 175 171
f 169 173 176
f 169 176 172
f 170 171 175
f 170 175 174
f 177 180 179
f 177 179 178
f 181 182 183
f 181 183 184
f 177 178 182
f 177 182 181
f 180 184 183
f 180 183 179
f 177 181 184
f 177 184 180
f 178 179 183
f 178 183 182
f 185 188 187
f 185 187 186
f 189 190 191
f 189 191 192
f 185 186 190
f 185 190 189
f 188 192 191
f 188 191 187
f 185 189 192
f 185 192 188
f 186 187 191
f 186 191 190
f 193 196 195
f 193 195 194
f 197 198 199
f 197 199 200
f 193 194 198
f 193 198 197
f 196 200 199
f 196 199 195
f 193 197 200
f 193 200 196
f 194 195 199
f 194 199 198
f 201 204 203
f 201 203 202
f 205 206 207
f 205 207 208
f 201 202 206
f 201 206 205
f 204 208 207
f 204 207 203
f 201 205 208
f 201 208 204
f 202 203 207
f 202 207 206
f 209 212 211
f 209 211 210
f 213 214 215
f 213 215 216
f 209 210 214
f 209 214 213
f 212 216 215
f 212 215 211
f 209 213 216
f 209 216 212
f 210 211 215
f 210 215 214
f 217 220 219
f 217 219 218
f 221 222 223
f 221 223 224
f 217 218 222
f 217 222 221
f 220 224 223
f 220 223 219
f 217 221 224
f 217 224 220
f 218 219 223
f 218 223 222
f 225 228 227
f 225 227 226
f 229 230 231
f 229 231 232
f 225 226 230
f 225 230 229
f 228 232 231
f 228 231 227
f 225 229 232
f 225 232 228
f 226 227 231
f 226 231 230
f 233 236 235
f 233 235 234
f 237 238 239
f 237 239 240
f 233 234 238
f 233 238 237
f 236 240 239
f 236 239 235
f 233 237 240
f 233 240 236
f 234 235 239
f 234 239 238
f 241 244 243
f 241 243 242
f 245 246 247
f 245 247 248
f 241 242 246
f 241 246 245
f 244 248 247
f 244 247 243
f 241 245 248
f 241 248 244
f 242 243 247
f 242 247 246
f 249 252 251
f 249 251 250
f 253 254 255
f 253 255 256
f 249 250 254
f 249 254 253
f 252 256 255
f 252 255 251
f 249 253 256
f 249 256 252
f 250 251 255
f 250 255 254
f 257 260 259
f 257 259 258
f 261 262 263
f 261 263 264
f 257 258 262
f 257 262 261
f 260 264 263
f 260 263 259
f 257 261 264
f 257 264 260
f 258 259 263
f 258 263 262
f 265 268 267
f 265 267 266
f 269 270 271
f 269 271 272
f 265 266 270
f 265 270 269
f 268 272 271
f 268 271 267
f 265 269 272
f 265 272 268
f 266 267 271
f 266 271 270
f 273 276 275
f 273 275 274
f 277 278 279
f 277 279 280
f 273 274 278
f 273 278 277
f 276 280 279
f 276 279 275
f 273 277 280
f 273 280 276
f 274 275 279
f 274 279 278
f 281 284 283
f 281 283 282
f 285 286 287
f 285 287 288
f 281 282 286
f 281 286 285
f 284 288 287
f 284 287 283
f 281 285 288
f 281 288 284
f 282 283 287
f 282 287 286
