v 2.25 -2.88675 -3.33333
v 3.75 -2.88675 -3.33333
v 3.75 2.88675 -3.33333
v 2.25 2.88675 -3.33333
v 2.25 -2.88675 3.33333
v 3.75 -2.88675 3.33333
v 3.75 2.88675 3.33333
v 2.25 2.88675 3.33333
v 1.73044 -1.44338 -3.33333
v 2.25 -1.44338 -3.33333
v 2.25 1.44338 -3.33333
v 1.73044 1.44338 -3.33333
v 1.73044 -1.44338 3.33333
v 2.25 -1.44338 3.33333
v 2.25 1.44338 3.33333
v 1.73044 1.44338 3.33333
v 3.75 -1.44338 -3.33333
v 4.26956 -1.44338 -3.33333
v 4.26956 1.44338 -3.33333
v 3.75 1.44338 -3.33333
v 3.75 -1.44338 3.33333
v 4.26956 -1.44338 3.33333
v 4.26956 1.44338 3.33333
v 3.75 1.44338 3.33333
v 1.73044 -3.28671 -1.66667
v 4.26956 -3.28671 -1.66667
v 4.26956 -2.88675 -1.66667
v 1.73044 -2.88675 -1.66667
v 1.73044 -3.28671 1.66667
v 4.26956 -3.28671 1.66667
v 4.26956 -2.88675 1.66667
v 1.73044 -2.88675 1.66667
v 1.73044 -2.88675 -1.66667
v 2.25 -2.88675 -1.66667
v 2.25 -1.44338 -1.66667
v 1.73044 -1.44338 -1.66667
v 1.73044 -2.88675 1.66667
v 2.25 -2.88675 1.66667
v 2.25 -1.44338 1.66667
v 1.73044 -1.44338 1.66667
v 3.75 -2.88675 -1.66667
v 4.26956 -2.88675 -1.66667
v 4.26956 -1.44338 -1.66667
v 3.75 -1.44338 -1.66667
v 3.75 -2.88675 1.66667
v 4.26956 -2.88675 1.66667
v 4.26956 -1.44338 1.66667
v 3.75 -1.44338 1.66667
v 1.13889 -1.64336 -1.66667
v 1.73044 -1.64336 -1.66667
v 1.73044 1.64336 -1.66667
v 1.13889 1.64336 -1.66667
v 1.13889 -1.64336 1.66667
v 1.73044 -1.64336 1.66667
v 1.73044 1.64336 1.66667
v 1.13889 1.64336 1.66667
v 4.26956 -1.64336 -1.66667
v 4.86111 -1.64336 -1.66667
v 4.86111 1.64336 -1.66667
v 4.26956 1.64336 -1.66667
v 4.26956 -1.64336 1.66667
v 4.86111 -1.64336 1.66667
v 4.86111 1.64336 1.66667
v 4.26956 1.64336 1.66667
v 1.73044 1.44338 -1.66667
v 2.25 1.44338 -1.66667
v 2.25 3.28671 -1.66667
v 1.73044 3.28671 -1.66667
v 1.73044 1.44338 1.66667
v 2.25 1.44338 1.66667
v 2.25 3.28671 1.66667
v 1.73044 3.28671 1.66667
v 3.75 1.44338 -1.66667
v 4.26956 1.44338 -1.66667
v 4.26956 3.28671 -1.66667
v 3.75 3.28671 -1.66667
v 3.75 1.44338 1.66667
v 4.26956 1.44338 1.66667
v 4.26956 3.28671 1.66667
v 3.75 3.28671 1.66667
v 2.25 2.88675 -1.66667
v 3.75 2.88675 -1.66667
v 3.75 3.28671 -1.66667
v 2.25 3.28671 -1.66667
v 2.25 2.88675 1.66667
v 3.75 2.88675 1.66667
v 3.75 3.28671 1.66667
v 2.25 3.28671 1.66667
f 1 4 3
f 1 3 2
f 5 6 7
f 5 7 8
f 1 2 6
f 1 6 5
f 4 8 7
f 4 7 3
f 1 5 8
f 1 8 4
f 2 3 7
f 2 7 6
f 9 12 11
f 9 11 10
f 13 14 15
f 13 15 16
f 9 10 14
f 9 14 13
f 12 16 15
f 12 15 11
f 9 13 16
f 9 16 12
f 10 11 15
f 10 15 14
f 17 20 19
f 17 19 18
f 21 22 23
f 21 23 24
f 17 18 22
f 17 22 21
f 20 24 23
f 20 23 19
f 17 21 24
f 17 24 20
f 18 19 23
f 18 23 22
f 25 28 27
f 25 27 26
f 29 30 31
f 29 31 32
f 25 26 30
f 25 30 29
f 28 32 31
f 28 31 27
f 25 29 32
f 25 32 28
f 26 27 31
f 26 31 30
f 33 36 35
f 33 35 34
f 37 38 39
f 37 39 40
f 33 34 38
f 33 38 37
f 36 40 39
f 36 39 35
f 33 37 40
f 33 40 36
f 34 35 39
f 34 39 38
f 41 44 43
f 41 43 42
f 45 46 47
f 45 47 48
f 41 42 46
f 41 46 45
f 44 48 47
f 44 47 43
f 41 45 48
f 41 48 44
f 42 43 47
f 42 47 46
f 49 52 51
f 49 51 50
f 53 54 55
f 53 55 56
f 49 50 54
f 49 54 53
f 52 56 55
f 52 55 51
f 49 53 56
f 49 56 52
f 50 51 55
f 50 55 54
f 57 60 59
f 57 59 58
f 61 62 63
f 61 63 64
f 57 58 62
f 57 62 61
f 60 64 63
f 60 63 59
f 57 61 64
f 57 64 60
f 58 59 63
f 58 63 62
f 65 68 67
f 65 67 66
f 69 70 71
f 69 71 72
f 65 66 70
f 65 70 69
f 68 72 71
f 68 71 67
f 65 69 72
f 65 72 68
f 66 67 71
f 66 71 70
f 73 76 75
f 73 75 74
f 77 78 79
f 77 79 80
f 73 74 78
f 73 78 77
f 76 80 79
f 76 79 75
f 73 77 80
f 73 80 76
f 74 75 79
f 74 79 78
f 81 84 83
f 81 83 82
f 85 86 87
f 85 87 88
f 81 82 86
f 81 86 85
f 84 88 87
f 84 87 83
f 81 85 88
f 81 88 84
f 82 83 87
f 82 87 86
