v -1.52778 -2.76385 -5
v 1.52778 -2.76385 -5
v 1.52778 -1.84257 -5
v -1.52778 -1.84257 -5
v -1.52778 -2.76385 -3.33333
v 1.52778 -2.76385 -3.33333
v 1.52778 -1.84257 -3.33333
v -1.52778 -1.84257 -3.33333
v -2.39357 -1.84257 -5
v 2.39357 -1.84257 -5
v 2.39357 -0.921285 -5
v -2.39357 -0.921285 -5
v -2.39357 -1.84257 -3.33333
v 2.39357 -1.84257 -3.33333
v 2.39357 -0.921285 -3.33333
v -2.39357 -0.921285 -3.33333
v -2.7252 -0.921285 -5
v 2.7252 -0.921285 -5
v 2.7252 -1.11022e-16 -5
v -2.7252 -1.11022e-16 -5
v -2.7252 -0.921285 -3.33333
v 2.7252 -0.921285 -3.33333
v 2.7252 -1.11022e-16 -3.33333
v -2.7252 -1.11022e-16 -3.33333
v -2.7252 -1.11022e-16 -5
v 2.7252 -1.11022e-16 -5
v 2.7252 0.921285 -5
v -2.7252 0.921285 -5
v -2.7252 -1.11022e-16 -3.33333
v 2.7252 -1.11022e-16 -3.33333
v 2.7252 0.921285 -3.33333
v -2.7252 0.921285 -3.33333
v -2.39357 0.921285 -5
v 2.39357 0.921285 -5
v 2.39357 1.84257 -5
v -2.39357 1.84257 -5
v -2.39357 0.921285 -3.33333
v 2.39357 0.921285 -3.33333
v 2.39357 1.84257 -3.33333
v -2.39357 1.84257 -3.33333
v -1.52778 1.84257 -5
v 1.52778 1.84257 -5
v 1.52778 2.76385 -5
v -1.52778 2.76385 -5
v -1.52778 1.84257 -3.33333
v 1.52778 1.84257 -3.33333
v 1.52778 2.76385 -3.33333
v -1.52778 2.76385 -3.33333
v -2.39357 -4.33013 -3.33333
v 2.39357 -4.33013 -3.33333
v 2.39357 -2.88675 -3.33333
v -2.39357 -2.88675 -3.33333
v -2.39357 -4.33013 -1.66667
v 2.39357 -4.33013 -1.66667
v 2.39357 -2.88675 -1.66667
v -2.39357 -2.88675 -1.66667
v -3.75 -2.88675 -3.33333
v 3.75 -2.88675 -3.33333
v 3.75 -1.44338 -3.33333
v -3.75 -1.44338 -3.33333
v -3.75 -2.88675 -1.66667
v 3.75 -2.88675 -1.66667
v 3.75 -1.44338 -1.66667
v -3.75 -1.44338 -1.66667
v -4.26956 -1.44338 -3.33333
v 4.26956 -1.44338 -3.33333
v 4.26956 0 -3.33333
v -4.26956 0 -3.33333
v -4.26956 -1.44338 -1.66667
v 4.26956 -1.44338 -1.66667
v 4.26956 0 -1.66667
v -4.26956 0 -1.66667
v -4.26956 0 -3.33333
v 4.26956 0 -3.33333
v 4.26956 1.44338 -3.33333
v -4.26956 1.44338 -3.33333
v -4.26956 0 -1.66667
v 4.26956 0 -1.66667
v 4.26956 1.44338 -1.66667
v -4.26956 1.44338 -1.66667
v -3.75 1.44338 -3.33333
v 3.75 1.44338 -3.33333
v 3.75 2.88675 -3.33333
v -3.75 2.88675 -3.33333
v -3.75 1.44338 -1.66667
v 3.75 1.44338 -1.66667
v 3.75 2.88675 -1.66667
v -3.75 2.88675 -1.66667
v -2.39357 2.88675 -3.33333
v 2.39357 2.88675 -3.33333
v 2.39357 4.33013 -3.33333
v -2.39357 4.33013 -3.33333
v -2.39357 2.88675 -1.66667
v 2.39357 2.88675 -1.66667
v 2.39357 4.33013 -1.66667
v -2.39357 4.33013 -1.66667
v -2.7252 -4.93007 -1.66667
v 2.7252 -4.93007 -1.66667
v 2.7252 -3.28671 -1.66667
v -2.7252 -3.28671 -1.66667
v -2.7252 -4.93007 2.22045e-16
v 2.7252 -4.93007 2.22045e-16
v 2.7252 -3.28671 2.22045e-16
v -2.7252 -3.28671 2.22045e-16
v -4.26956 -3.28671 -1.66667
v 4.26956 -3.28671 -1.66667
v 4.26956 -1.64336 -1.66667
v -4.26956 -1.64336 -1.66667
v -4.26956 -3.28671 2.22045e-16
v 4.26956 -3.28671 2.22045e-16
v 4.26956 -1.64336 2.22045e-16
v -4.26956 -1.64336 2.22045e-16
v -4.86111 -1.64336 -1.66667
v 4.86111 -1.64336 -1.66667
v 4.86111 -2.22045e-16 -1.66667
v -4.86111 -2.22045e-16 -1.66667
v -4.86111 -1.64336 2.22045e-16
v 4.86111 -1.64336 2.22045e-16
v 4.86111 -2.22045e-16 2.22045e-16
v -4.86111 -2.22045e-16 2.22045e-16
v -4.86111 -2.22045e-16 -1.66667
v 4.86111 -2.22045e-16 -1.66667
v 4.86111 1.64336 -1.66667
v -4.86111 1.64336 -1.66667
v -4.86111 -2.22045e-16 2.22045e-16
v 4.86111 -2.22045e-16 2.22045e-16
v 4.86111 1.64336 2.22045e-16
v -4.86111 1.64336 2.22045e-16
v -4.26956 1.64336 -1.66667
v 4.26956 1.64336 -1.66667
v 4.26956 3.28671 -1.66667
v -4.26956 3.28671 -1.66667
v -4.26956 1.64336 2.22045e-16
v 4.26956 1.64336 2.22045e-16
v 4.26956 3.28671 2.22045e-16
v -4.26956 3.28671 2.22045e-16
v -2.7252 3.28671 -1.66667
v 2.7252 3.28671 -1.66667
v 2.7252 4.93007 -1.66667
v -2.7252 4.93007 -1.66667
v -2.7252 3.28671 2.22045e-16
v 2.7252 3.28671 2.22045e-16
v 2.7252 4.93007 2.22045e-16
v -2.7252 4.93007 2.22045e-16
v -2.7252 -4.93007 2.22045e-16
v 2.7252 -4.93007 2.22045e-16
v 2.7252 -3.28671 2.22045e-16
v -2.7252 -3.28671 2.22045e-16
v -2.7252 -4.93007 1.66667
v 2.7252 -4.93007 1.66667
v 2.7252 -3.28671 1.66667
v -2.7252 -3.28671 1.66667
v -4.26956 -3.28671 2.22045e-16
v 4.26956 -3.28671 2.22045e-16
v 4.26956 -1.64336 2.22045e-16
v -4.26956 -1.64336 2.22045e-16
v -4.26956 -3.28671 1.66667
v 4.26956 -3.28671 1.66667
v 4.26956 -1.64336 1.66667
v -4.26956 -1.64336 1.66667
v -4.86111 -1.64336 2.22045e-16
v 4.86111 -1.64336 2.22045e-16
v 4.86111 0 2.22045e-16
v -4.86111 0 2.22045e-16
v -4.86111 -1.64336 1.66667
v 4.86111 -1.64336 1.66667
v 4.86111 0 1.66667
v -4.86111 0 1.66667
v -4.86111 0 2.22045e-16
v 4.86111 0 2.22045e-16
v 4.86111 1.64336 2.22045e-16
v -4.86111 1.64336 2.22045e-16
v -4.86111 0 1.66667
v 4.86111 0 1.66667
v 4.86111 1.64336 1.66667
v -4.86111 1.64336 1.66667
v -4.26956 1.64336 2.22045e-16
v 4.26956 1.64336 2.22045e-16
v 4.26956 3.28671 2.22045e-16
v -4.26956 3.28671 2.22045e-16
v -4.26956 1.64336 1.66667
v 4.26956 1.64336 1.66667
v 4.26956 3.28671 1.66667
v -4.26956 3.28671 1.66667
v -2.7252 3.28671 2.22045e-16
v 2.7252 3.28671 2.22045e-16
v 2.7252 4.93007 2.22045e-16
v -2.7252 4.93007 2.22045e-16
v -2.7252 3.28671 1.66667
v 2.7252 3.28671 1.66667
v 2.7252 4.93007 1.66667
v -2.7252 4.93007 1.66667
v -2.39357 -4.33013 1.66667
v 2.39357 -4.33013 1.66667
v 2.39357 -2.88675 1.66667
v -2.39357 -2.88675 1.66667
v -2.39357 -4.33013 3.33333
v 2.39357 -4.33013 3.33333
v 2.39357 -2.88675 3.33333
v -2.39357 -2.88675 3.33333
v -3.75 -2.88675 1.66667
v 3.75 -2.88675 1.66667
v 3.75 -1.44338 1.66667
v -3.75 -1.44338 1.66667
v -3.75 -2.88675 3.33333
v 3.75 -2.88675 3.33333
v 3.75 -1.44338 3.33333
v -3.75 -1.44338 3.33333
v -4.26956 -1.44338 1.66667
v 4.26956 -1.44338 1.66667
v 4.26956 2.22045e-16 1.66667
v -4.26956 2.22045e-16 1.66667
v -4.26956 -1.44338 3.33333
v 4.26956 -1.44338 3.33333
v 4.26956 2.22045e-16 3.33333
v -4.26956 2.22045e-16 3.33333
v -4.26956 2.22045e-16 1.66667
v 4.26956 2.22045e-16 1.66667
v 4.26956 1.44338 1.66667
v -4.26956 1.44338 1.66667
v -4.26956 2.22045e-16 3.33333
v 4.26956 2.22045e-16 3.33333
v 4.26956 1.44338 3.33333
v -4.26956 1.44338 3.33333
v -3.75 1.44338 1.66667
v 3.75 1.44338 1.66667
v 3.75 2.88675 1.66667
v -3.75 2.88675 1.66667
v -3.75 1.44338 3.33333
v 3.75 1.44338 3.33333
v 3.75 2.88675 3.33333
v -3.75 2.88675 3.33333
v -2.39357 2.88675 1.66667
v 2.39357 2.88675 1.66667
v 2.39357 4.33013 1.66667
v -2.39357 4.33013 1.66667
v -2.39357 2.88675 3.33333
v 2.39357 2.88675 3.33333
v 2.39357 4.33013 3.33333
v -2.39357 4.33013 3.33333
v -1.52778 -2.76385 3.33333
v 1.52778 -2.76385 3.33333
v 1.52778 -1.84257 3.33333
v -1.52778 -1.84257 3.33333
v -1.52778 -2.76385 5
v 1.52778 -2.76385 5
v 1.52778 -1.84257 5
v -1.52778 -1.84257 5
v -2.39357 -1.84257 3.33333
v 2.39357 -1.84257 3.33333
v 2.39357 -0.921285 3.33333
v -2.39357 -0.921285 3.33333
v -2.39357 -1.84257 5
v 2.39357 -1.84257 5
v 2.39357 -0.921285 5
v -2.39357 -0.921285 5
v -2.7252 -0.921285 3.33333
v 2.7252 -0.921285 3.33333
v 2.7252 -1.11022e-16 3.33333
v -2.7252 -1.11022e-16 3.33333
v -2.7252 -0.921285 5
v 2.7252 -0.921285 5
v 2.7252 -1.11022e-16 5
v -2.7252 -1.11022e-16 5
v -2.7252 -1.11022e-16 3.33333
v 2.7252 -1.11022e-16 3.33333
v 2.7252 0.921285 3.33333
v -2.7252 0.921285 3.33333
v -2.7252 -1.11022e-16 5
v 2.7252 -1.11022e-16 5
v 2.7252 0.921285 5
v -2.7252 0.921285 5
v -2.39357 0.921285 3.33333
v 2.39357 0.921285 3.33333
v 2.39357 1.84257 3.33333
v -2.39357 1.84257 3.33333
v -2.39357 0.921285 5
v 2.39357 0.921285 5
v 2.39357 1.84257 5
v -2.39357 1.84257 5
v -1.52778 1.84257 3.33333
v 1.52778 1.84257 3.33333
v 1.52778 2.76385 3.33333
v -1.52778 2.76385 3.33333
v -1.52778 1.84257 5
v 1.52778 1.84257 5
v 1.52778 2.76385 5
v -1.52778 2.76385 5
v 4.47222 -2.76385 -5
v 7.52778 -2.76385 -5
v 7.52778 -1.84257 -5
v 4.47222 -1.84257 -5
v 4.47222 -2.76385 -3.33333
v 7.52778 -2.76385 -3.33333
v 7.52778 -1.84257 -3.33333
v 4.47222 -1.84257 -3.33333
v 3.60643 -1.84257 -5
v 8.39357 -1.84257 -5
v 8.39357 -0.921285 -5
v 3.60643 -0.921285 -5
v 3.60643 -1.84257 -3.33333
v 8.39357 -1.84257 -3.33333
v 8.39357 -0.921285 -3.33333
v 3.60643 -0.921285 -3.33333
v 3.2748 -0.921285 -5
v 8.7252 -0.921285 -5
v 8.7252 -1.11022e-16 -5
v 3.2748 -1.11022e-16 -5
v 3.2748 -0.921285 -3.33333
v 8.7252 -0.921285 -3.33333
v 8.7252 -1.11022e-16 -3.33333
v 3.2748 -1.11022e-16 -3.33333
v 3.2748 -1.11022e-16 -5
v 8.7252 -1.11022e-16 -5
v 8.7252 0.921285 -5
v 3.2748 0.921285 -5
v 3.2748 -1.11022e-16 -3.33333
v 8.7252 -1.11022e-16 -3.33333
v 8.7252 0.921285 -3.33333
v 3.2748 0.921285 -3.33333
v 3.60643 0.921285 -5
v 8.39357 0.921285 -5
v 8.39357 1.84257 -5
v 3.60643 1.84257 -5
v 3.60643 0.921285 -3.33333
v 8.39357 0.921285 -3.33333
v 8.39357 1.84257 -3.33333
v 3.60643 1.84257 -3.33333
v 4.47222 1.84257 -5
v 7.52778 1.84257 -5
v 7.52778 2.76385 -5
v 4.47222 2.76385 -5
v 4.47222 1.84257 -3.33333
v 7.52778 1.84257 -3.33333
v 7.52778 2.76385 -3.33333
v 4.47222 2.76385 -3.33333
v 3.60643 -4.33013 -3.33333
v 8.39357 -4.33013 -3.33333
v 8.39357 -2.88675 -3.33333
v 3.60643 -2.88675 -3.33333
v 3.60643 -4.33013 -1.66667
v 8.39357 -4.33013 -1.66667
v 8.39357 -2.88675 -1.66667
v 3.60643 -2.88675 -1.66667
v 2.25 -2.88675 -3.33333
v 9.75 -2.88675 -3.33333
v 9.75 -1.44338 -3.33333
v 2.25 -1.44338 -3.33333
v 2.25 -2.88675 -1.66667
v 9.75 -2.88675 -1.66667
v 9.75 -1.44338 -1.66667
v 2.25 -1.44338 -1.66667
v 1.73044 -1.44338 -3.33333
v 10.2696 -1.44338 -3.33333
v 10.2696 0 -3.33333
v 1.73044 0 -3.33333
v 1.73044 -1.44338 -1.66667
v 10.2696 -1.44338 -1.66667
v 10.2696 0 -1.66667
v 1.73044 0 -1.66667
v 1.73044 0 -3.33333
v 10.2696 0 -3.33333
v 10.2696 1.44338 -3.33333
v 1.73044 1.44338 -3.33333
v 1.73044 0 -1.66667
v 10.2696 0 -1.66667
v 10.2696 1.44338 -1.66667
v 1.73044 1.44338 -1.66667
v 2.25 1.44338 -3.33333
v 9.75 1.44338 -3.33333
v 9.75 2.88675 -3.33333
v 2.25 2.88675 -3.33333
v 2.25 1.44338 -1.66667
v 9.75 1.44338 -1.66667
v 9.75 2.88675 -1.66667
v 2.25 2.88675 -1.66667
v 3.60643 2.88675 -3.33333
v 8.39357 2.88675 -3.33333
v 8.39357 4.33013 -3.33333
v 3.60643 4.33013 -3.33333
v 3.60643 2.88675 -1.66667
v 8.39357 2.88675 -1.66667
v 8.39357 4.33013 -1.66667
v 3.60643 4.33013 -1.66667
v 3.2748 -4.93007 -1.66667
v 8.7252 -4.93007 -1.66667
v 8.7252 -3.28671 -1.66667
v 3.2748 -3.28671 -1.66667
v 3.2748 -4.93007 2.22045e-16
v 8.7252 -4.93007 2.22045e-16
v 8.7252 -3.28671 2.22045e-16
v 3.2748 -3.28671 2.22045e-16
v 1.73044 -3.28671 -1.66667
v 10.2696 -3.28671 -1.66667
v 10.2696 -1.64336 -1.66667
v 1.73044 -1.64336 -1.66667
v 1.73044 -3.28671 2.22045e-16
v 10.2696 -3.28671 2.22045e-16
v 10.2696 -1.64336 2.22045e-16
v 1.73044 -1.64336 2.22045e-16
v 1.13889 -1.64336 -1.66667
v 10.8611 -1.64336 -1.66667
v 10.8611 -2.22045e-16 -1.66667
v 1.13889 -2.22045e-16 -1.66667
v 1.13889 -1.64336 2.22045e-16
v 10.8611 -1.64336 2.22045e-16
v 10.8611 -2.22045e-16 2.22045e-16
v 1.13889 -2.22045e-16 2.22045e-16
v 1.13889 -2.22045e-16 -1.66667
v 10.8611 -2.22045e-16 -1.66667
v 10.8611 1.64336 -1.66667
v 1.13889 1.64336 -1.66667
v 1.13889 -2.22045e-16 2.22045e-16
v 10.8611 -2.22045e-16 2.22045e-16
v 10.8611 1.64336 2.22045e-16
v 1.13889 1.64336 2.22045e-16
v 1.73044 1.64336 -1.66667
v 10.2696 1.64336 -1.66667
v 10.2696 3.28671 -1.66667
v 1.73044 3.28671 -1.66667
v 1.73044 1.64336 2.22045e-16
v 10.2696 1.64336 2.22045e-16
v 10.2696 3.28671 2.22045e-16
v 1.73044 3.28671 2.22045e-16
v 3.2748 3.28671 -1.66667
v 8.7252 3.28671 -1.66667
v 8.7252 4.93007 -1.66667
v 3.2748 4.93007 -1.66667
v 3.2748 3.28671 2.22045e-16
v 8.7252 3.28671 2.22045e-16
v 8.7252 4.93007 2.22045e-16
v 3.2748 4.93007 2.22045e-16
v 3.2748 -4.93007 2.22045e-16
v 8.7252 -4.93007 2.22045e-16
v 8.7252 -3.28671 2.22045e-16
v 3.2748 -3.28671 2.22045e-16
v 3.2748 -4.93007 1.66667
v 8.7252 -4.93007 1.66667
v 8.7252 -3.28671 1.66667
v 3.2748 -3.28671 1.66667
v 1.73044 -3.28671 2.22045e-16
v 10.2696 -3.28671 2.22045e-16
v 10.2696 -1.64336 2.22045e-16
v 1.73044 -1.64336 2.22045e-16
v 1.73044 -3.28671 1.66667
v 10.2696 -3.28671 1.66667
v 10.2696 -1.64336 1.66667
v 1.73044 -1.64336 1.66667
v 1.13889 -1.64336 2.22045e-16
v 10.8611 -1.64336 2.22045e-16
v 10.8611 0 2.22045e-16
v 1.13889 0 2.22045e-16
v 1.13889 -1.64336 1.66667
v 10.8611 -1.64336 1.66667
v 10.8611 0 1.66667
v 1.13889 0 1.66667
v 1.13889 0 2.22045e-16
v 10.8611 0 2.22045e-16
v 10.8611 1.64336 2.22045e-16
v 1.13889 1.64336 2.22045e-16
v 1.13889 0 1.66667
v 10.8611 0 1.66667
v 10.8611 1.64336 1.66667
v 1.13889 1.64336 1.66667
v 1.73044 1.64336 2.22045e-16
v 10.2696 1.64336 2.22045e-16
v 10.2696 3.28671 2.22045e-16
v 1.73044 3.28671 2.22045e-16
v 1.73044 1.64336 1.66667
v 10.2696 1.64336 1.66667
v 10.2696 3.28671 1.66667
v 1.73044 3.28671 1.66667
v 3.2748 3.28671 2.22045e-16
v 8.7252 3.28671 2.22045e-16
v 8.7252 4.93007 2.22045e-16
v 3.2748 4.93007 2.22045e-16
v 3.2748 3.28671 1.66667
v 8.7252 3.28671 1.66667
v 8.7252 4.93007 1.66667
v 3.2748 4.93007 1.66667
v 3.60643 -4.33013 1.66667
v 8.39357 -4.33013 1.66667
v 8.39357 -2.88675 1.66667
v 3.60643 -2.88675 1.66667
v 3.60643 -4.33013 3.33333
v 8.39357 -4.33013 3.33333
v 8.39357 -2.88675 3.33333
v 3.60643 -2.88675 3.33333
v 2.25 -2.88675 1.66667
v 9.75 -2.88675 1.66667
v 9.75 -1.44338 1.66667
v 2.25 -1.44338 1.66667
v 2.25 -2.88675 3.33333
v 9.75 -2.88675 3.33333
v 9.75 -1.44338 3.33333
v 2.25 -1.44338 3.33333
v 1.73044 -1.44338 1.66667
v 10.2696 -1.44338 1.66667
v 10.2696 2.22045e-16 1.66667
v 1.73044 2.22045e-16 1.66667
v 1.73044 -1.44338 3.33333
v 10.2696 -1.44338 3.33333
v 10.2696 2.22045e-16 3.33333
v 1.73044 2.22045e-16 3.33333
v 1.73044 2.22045e-16 1.66667
v 10.2696 2.22045e-16 1.66667
v 10.2696 1.44338 1.66667
v 1.73044 1.44338 1.66667
v 1.73044 2.22045e-16 3.33333
v 10.2696 2.22045e-16 3.33333
v 10.2696 1.44338 3.33333
v 1.73044 1.44338 3.33333
v 2.25 1.44338 1.66667
v 9.75 1.44338 1.66667
v 9.75 2.88675 1.66667
v 2.25 2.88675 1.66667
v 2.25 1.44338 3.33333
v 9.75 1.44338 3.33333
v 9.75 2.88675 3.33333
v 2.25 2.88675 3.33333
v 3.60643 2.88675 1.66667
v 8.39357 2.88675 1.66667
v 8.39357 4.33013 1.66667
v 3.60643 4.33013 1.66667
v 3.60643 2.88675 3.33333
v 8.39357 2.88675 3.33333
v 8.39357 4.33013 3.33333
v 3.60643 4.33013 3.33333
v 4.47222 -2.76385 3.33333
v 7.52778 -2.76385 3.33333
v 7.52778 -1.84257 3.33333
v 4.47222 -1.84257 3.33333
v 4.47222 -2.76385 5
v 7.52778 -2.76385 5
v 7.52778 -1.84257 5
v 4.47222 -1.84257 5
v 3.60643 -1.84257 3.33333
v 8.39357 -1.84257 3.33333
v 8.39357 -0.921285 3.33333
v 3.60643 -0.921285 3.33333
v 3.60643 -1.84257 5
v 8.39357 -1.84257 5
v 8.39357 -0.921285 5
v 3.60643 -0.921285 5
v 3.2748 -0.921285 3.33333
v 8.7252 -0.921285 3.33333
v 8.7252 -1.11022e-16 3.33333
v 3.2748 -1.11022e-16 3.33333
v 3.2748 -0.921285 5
v 8.7252 -0.921285 5
v 8.7252 -1.11022e-16 5
v 3.2748 -1.11022e-16 5
v 3.2748 -1.11022e-16 3.33333
v 8.7252 -1.11022e-16 3.33333
v 8.7252 0.921285 3.33333
v 3.2748 0.921285 3.33333
v 3.2748 -1.11022e-16 5
v 8.7252 -1.11022e-16 5
v 8.7252 0.921285 5
v 3.2748 0.921285 5
v 3.60643 0.921285 3.33333
v 8.39357 0.921285 3.33333
v 8.39357 1.84257 3.33333
v 3.60643 1.84257 3.33333
v 3.60643 0.921285 5
v 8.39357 0.921285 5
v 8.39357 1.84257 5
v 3.60643 1.84257 5
v 4.47222 1.84257 3.33333
v 7.52778 1.84257 3.33333
v 7.52778 2.76385 3.33333
v 4.47222 2.76385 3.33333
v 4.47222 1.84257 5
v 7.52778 1.84257 5
v 7.52778 2.76385 5
v 4.47222 2.76385 5
f 1 4 3
f 1 3 2
f 5 6 7
f 5 7 8
f 1 2 6
f 1 6 5
f 4 8 7
f 4 7 3
f 1 5 8
f 1 8 4
f 2 3 7
f 2 7 6
f 9 12 11
f 9 11 10
f 13 14 15
f 13 15 16
f 9 10 14
f 9 14 13
f 12 16 15
f 12 15 11
f 9 13 16
f 9 16 12
f 10 11 15
f 10 15 14
f 17 20 19
f 17 19 18
f 21 22 23
f 21 23 24
f 17 18 22
f 17 22 21
f 20 24 23
f 20 23 19
f 17 21 24
f 17 24 20
f 18 19 23
f 18 23 22
f 25 28 27
f 25 27 26
f 29 30 31
f 29 31 32
f 25 26 30
f 25 30 29
f 28 32 31
f 28 31 27
f 25 29 32
f 25 32 28
f 26 27 31
f 26 31 30
f 33 36 35
f 33 35 34
f 37 38 39
f 37 39 40
f 33 34 38
f 33 38 37
f 36 40 39
f 36 39 35
f 33 37 40
f 33 40 36
f 34 35 39
f 34 39 38
f 41 44 43
f 41 43 42
f 45 46 47
f 45 47 48
f 41 42 46
f 41 46 45
f 44 48 47
f 44 47 43
f 41 45 48
f 41 48 44
f 42 43 47
f 42 47 46
f 49 52 51
f 49 51 50
f 53 54 55
f 53 55 56
f 49 50 54
f 49 54 53
f 52 56 55
f 52 55 51
f 49 53 56
f 49 56 52
f 50 51 55
f 50 55 54
f 57 60 59
f 57 59 58
f 61 62 63
f 61 63 64
f 57 58 62
f 57 62 61
f 60 64 63
f 60 63 59
f 57 61 64
f 57 64 60
f 58 59 63
f 58 63 62
f 65 68 67
f 65 67 66
f 69 70 71
f 69 71 72
f 65 66 70
f 65 70 69
f 68 72 71
f 68 71 67
f 65 69 72
f 65 72 68
f 66 67 71
f 66 71 70
f 73 76 75
f 73 75 74
f 77 78 79
f 77 79 80
f 73 74 78
f 73 78 77
f 76 80 79
f 76 79 75
f 73 77 80
f 73 80 76
f 74 75 79
f 74 79 78
f 81 84 83
f 81 83 82
f 85 86 87
f 85 87 88
f 81 82 86
f 81 86 85
f 84 88 87
f 84 87 83
f 81 85 88
f 81 88 84
f 82 83 87
f 82 87 86
f 89 92 91
f 89 91 90
f 93 94 95
f 93 95 96
f 89 90 94
f 89 94 93
f 92 96 95
f 92 95 91
f 89 93 96
f 89 96 92
f 90 91 95
f 90 95 94
f 97 100 99
f 97 99 98
f 101 102 103
f 101 103 104
f 97 98 102
f 97 102 101
f 100 104 103
f 100 103 99
f 97 101 104
f 97 104 100
f 98 99 103
f 98 103 102
f 105 108 107
f 105 107 106
f 109 110 111
f 109 111 112
f 105 106 110
f 105 110 109
f 108 112 111
f 108 111 107
f 105 109 112
f 105 112 108
f 106 107 111
f 106 111 110
f 113 116 115
f 113 115 114
f 117 118 119
f 117 119 120
f 113 114 118
f 113 118 117
f 116 120 119
f 116 119 115
f 113 117 120
f 113 120 116
f 114 115 119
f 114 119 118
f 121 124 123
f 121 123 122
f 125 126 127
f 125 127 128
f 121 122 126
f 121 126 125
f 124 128 127
f 124 127 123
f 121 125 128
f 121 128 124
f 122 123 127
f 122 127 126
f 129 132 131
f 129 131 130
f 133 134 135
f 133 135 136
f 129 130 134
f 129 134 133
f 132 136 135
f 132 135 131
f 129 133 136
f 129 136 132
f 130 131 135
f 130 135 134
f 137 140 139
f 137 139 138
f 141 142 143
f 141 143 144
f 137 138 142
f 137 142 141
f 140 144 143
f 140 143 139
f 137 141 144
f 137 144 140
f 138 139 143
f 138 143 142
f 145 148 147
f 145 147 146
f 149 150 151
f 149 151 152
f 145 146 150
f 145 150 149
f 148 152 151
f 148 151 147
f 145 149 152
f 145 152 148
f 146 147 151
f 146 151 150
f 153 156 155
f 153 155 154
f 157 158 159
f 157 159 160
f 153 154 158
f 153 158 157
f 156 160 159
f 156 159 155
f 153 157 160
f 153 160 156
f 154 155 159
f 154 159 158
f 161 164 163
f 161 163 162
f 165 166 167
f 165 167 168
f 161 162 166
f 161 166 165
f 164 168 167
f 164 167 163
f 161 165 168
f 161 168 164
f 162 163 167
f 162 167 166
f 169 172 171
f 169 171 170
f 173 174 175
f 173 175 176
f 169 170 174
f 169 174 173
f 172 176 175
f 172 175 171
f 169 173 176
f 169 176 172
f 170 171 175
f 170 175 174
f 177 180 179
f 177 179 178
f 181 182 183
f 181 183 184
f 177 178 182
f 177 182 181
f 180 184 183
f 180 183 179
f 177 181 184
f 177 184 180
f 178 179 183
f 178 183 182
f 185 188 187
f 185 187 186
f 189 190 191
f 189 191 192
f 185 186 190
f 185 190 189
f 188 192 191
f 188 191 187
f 185 189 192
f 185 192 188
f 186 187 191
f 186 191 190
f 193 196 195
f 193 195 194
f 197 198 199
f 197 199 200
f 193 194 198
f 193 198 197
f 196 200 199
f 196 199 195
f 193 197 200
f 193 200 196
f 194 195 199
f 194 199 198
f 201 204 203
f 201 203 202
f 205 206 207
f 205 207 208
f 201 202 206
f 201 206 205
f 204 208 207
f 204 207 203
f 201 205 208
f 201 208 204
f 202 203 207
f 202 207 206
f 209 212 211
f 209 211 210
f 213 214 215
f 213 215 216
f 209 210 214
f 209 214 213
f 212 216 215
f 212 215 211
f 209 213 216
f 209 216 212
f 210 211 215
f 210 215 214
f 217 220 219
f 217 219 218
f 221 222 223
f 221 223 224
f 217 218 222
f 217 222 221
f 220 224 223
f 220 223 219
f 217 221 224
f 217 224 220
f 218 219 223
f 218 223 222
f 225 228 227
f 225 227 226
f 229 230 231
f 229 231 232
f 225 226 230
f 225 230 229
f 228 232 231
f 228 231 227
f 225 229 232
f 225 232 228
f 226 227 231
f 226 231 230
f 233 236 235
f 233 235 234
f 237 238 239
f 237 239 240
f 233 234 238
f 233 238 237
f 236 240 239
f 236 239 235
f 233 237 240
f 233 240 236
f 234 235 239
f 234 239 238
f 241 244 243
f 241 243 242
f 245 246 247
f 245 247 248
f 241 242 246
f 241 246 245
f 244 248 247
f 244 247 243
f 241 245 248
f 241 248 244
f 242 243 247
f 242 247 246
f 249 252 251
f 249 251 250
f 253 254 255
f 253 255 256
f 249 250 254
f 249 254 253
f 252 256 255
f 252 255 251
f 249 253 256
f 249 256 252
f 250 251 255
f 250 255 254
f 257 260 259
f 257 259 258
f 261 262 263
f 261 263 264
f 257 258 262
f 257 262 261
f 260 264 263
f 260 263 259
f 257 261 264
f 257 264 260
f 258 259 263
f 258 263 262
f 265 268 267
f 265 267 266
f 269 270 271
f 269 271 272
f 265 266 270
f 265 270 269
f 268 272 271
f 268 271 267
f 265 269 272
f 265 272 268
f 266 267 271
f 266 271 270
f 273 276 275
f 273 275 274
f 277 278 279
f 277 279 280
f 273 274 278
f 273 278 277
f 276 280 279
f 276 279 275
f 273 277 280
f 273 280 276
f 274 275 279
f 274 279 278
f 281 284 283
f 281 283 282
f 285 286 287
f 285 287 288
f 281 282 286
f 281 286 285
f 284 288 287
f 284 287 283
f 281 285 288
f 281 288 284
f 282 283 287
f 282 287 286
f 289 292 291
f 289 291 290
f 293 294 295
f 293 295 296
f 289 290 294
f 289 294 293
f 292 296 295
f 292 295 291
f 289 293 296
f 289 296 292
f 290 291 295
f 290 295 294
f 297 300 299
f 297 299 298
f 301 302 303
f 301 303 304
f 297 298 302
f 297 302 301
f 300 304 303
f 300 303 299
f 297 301 304
f 297 304 300
f 298 299 303
f 298 303 302
f 305 308 307
f 305 307 306
f 309 310 311
f 309 311 312
f 305 306 310
f 305 310 309
f 308 312 311
f 308 311 307
f 305 309 312
f 305 312 308
f 306 307 311
f 306 311 310
f 313 316 315
f 313 315 314
f 317 318 319
f 317 319 320
f 313 314 318
f 313 318 317
f 316 320 319
f 316 319 315
f 313 317 320
f 313 320 316
f 314 315 319
f 314 319 318
f 321 324 323
f 321 323 322
f 325 326 327
f 325 327 328
f 321 322 326
f 321 326 325
f 324 328 327
f 324 327 323
f 321 325 328
f 321 328 324
f 322 323 327
f 322 327 326
f 329 332 331
f 329 331 330
f 333 334 335
f 333 335 336
f 329 330 334
f 329 334 333
f 332 336 335
f 332 335 331
f 329 333 336
f 329 336 332
f 330 331 335
f 330 335 334
f 337 340 339
f 337 339 338
f 341 342 343
f 341 343 344
f 337 338 342
f 337 342 341
f 340 344 343
f 340 343 339
f 337 341 344
f 337 344 340
f 338 339 343
f 338 343 342
f 345 348 347
f 345 347 346
f 349 350 351
f 349 351 352
f 345 346 350
f 345 350 349
f 348 352 351
f 348 351 347
f 345 349 352
f 345 352 348
f 346 347 351
f 346 351 350
f 353 356 355
f 353 355 354
f 357 358 359
f 357 359 360
f 353 354 358
f 353 358 357
f 356 360 359
f 356 359 355
f 353 357 360
f 353 360 356
f 354 355 359
f 354 359 358
f 361 364 363
f 361 363 362
f 365 366 367
f 365 367 368
f 361 362 366
f 361 366 365
f 364 368 367
f 364 367 363
f 361 365 368
f 361 368 364
f 362 363 367
f 362 367 366
f 369 372 371
f 369 371 370
f 373 374 375
f 373 375 376
f 369 370 374
f 369 374 373
f 372 376 375
f 372 375 371
f 369 373 376
f 369 376 372
f 370 371 375
f 370 375 374
f 377 380 379
f 377 379 378
f 381 382 383
f 381 383 384
f 377 378 382
f 377 382 381
f 380 384 383
f 380 383 379
f 377 381 384
f 377 384 380
f 378 379 383
f 378 383 382
f 385 388 387
f 385 387 386
f 389 390 391
f 389 391 392
f 385 386 390
f 385 390 389
f 388 392 391
f 388 391 387
f 385 389 392
f 385 392 388
f 386 387 391
f 386 391 390
f 393 396 395
f 393 395 394
f 397 398 399
f 397 399 400
f 393 394 398
f 393 398 397
f 396 400 399
f 396 399 395
f 393 397 400
f 393 400 396
f 394 395 399
f 394 399 398
f 401 404 403
f 401 403 402
f 405 406 407
f 405 407 408
f 401 402 406
f 401 406 405
f 404 408 407
f 404 407 403
f 401 405 408
f 401 408 404
f 402 403 407
f 402 407 406
f 409 412 411
f 409 411 410
f 413 414 415
f 413 415 416
f 409 410 414
f 409 414 413
f 412 416 415
f 412 415 411
f 409 413 416
f 409 416 412
f 410 411 415
f 410 415 414
f 417 420 419
f 417 419 418
f 421 422 423
f 421 423 424
f 417 418 422
f 417 422 421
f 420 424 423
f 420 423 419
f 417 421 424
f 417 424 420
f 418 419 423
f 418 423 422
f 425 428 427
f 425 427 426
f 429 430 431
f 429 431 432
f 425 426 430
f 425 430 429
f 428 432 431
f 428 431 427
f 425 429 432
f 425 432 428
f 426 427 431
f 426 431 430
f 433 436 435
f 433 435 434
f 437 438 439
f 437 439 440
f 433 434 438
f 433 438 437
f 436 440 439
f 436 439 435
f 433 437 440
f 433 440 436
f 434 435 439
f 434 439 438
f 441 444 443
f 441 443 442
f 445 446 447
f 445 447 448
f 441 442 446
f 441 446 445
f 444 448 447
f 444 447 443
f 441 445 448
f 441 448 444
f 442 443 447
f 442 447 446
f 449 452 451
f 449 451 450
f 453 454 455
f 453 455 456
f 449 450 454
f 449 454 453
f 452 456 455
f 452 455 451
f 449 453 456
f 449 456 452
f 450 451 455
f 450 455 454
f 457 460 459
f 457 459 458
f 461 462 463
f 461 463 464
f 457 458 462
f 457 462 461
f 460 464 463
f 460 463 459
f 457 461 464
f 457 464 460
f 458 459 463
f 458 463 462
f 465 468 467
f 465 467 466
f 469 470 471
f 469 471 472
f 465 466 470
f 465 470 469
f 468 472 471
f 468 471 467
f 465 469 472
f 465 472 468
f 466 467 471
f 466 471 470
f 473 476 475
f 473 475 474
f 477 478 479
f 477 479 480
f 473 474 478
f 473 478 477
f 476 480 479
f 476 479 475
f 473 477 480
f 473 480 476
f 474 475 479
f 474 479 478
f 481 484 483
f 481 483 482
f 485 486 487
f 485 487 488
f 481 482 486
f 481 486 485
f 484 488 487
f 484 487 483
f 481 485 488
f 481 488 484
f 482 483 487
f 482 487 486
f 489 492 491
f 489 491 490
f 493 494 495
f 493 495 496
f 489 490 494
f 489 494 493
f 492 496 495
f 492 495 491
f 489 493 496
f 489 496 492
f 490 491 495
f 490 495 494
f 497 500 499
f 497 499 498
f 501 502 503
f 501 503 504
f 497 498 502
f 497 502 501
f 500 504 503
f 500 503 499
f 497 501 504
f 497 504 500
f 498 499 503
f 498 503 502
f 505 508 507
f 505 507 506
f 509 510 511
f 509 511 512
f 505 506 510
f 505 510 509
f 508 512 511
f 508 511 507
f 505 509 512
f 505 512 508
f 506 507 511
f 506 511 510
f 513 516 515
f 513 515 514
f 517 518 519
f 517 519 520
f 513 514 518
f 513 518 517
f 516 520 519
f 516 519 515
f 513 517 520
f 513 520 516
f 514 515 519
f 514 519 518
f 521 524 523
f 521 523 522
f 525 526 527
f 525 527 528
f 521 522 526
f 521 526 525
f 524 528 527
f 524 527 523
f 521 525 528
f 521 528 524
f 522 523 527
f 522 527 526
f 529 532 531
f 529 531 530
f 533 534 535
f 533 535 536
f 529 530 534
f 529 534 533
f 532 536 535
f 532 535 531
f 529 533 536
f 529 536 532
f 530 531 535
f 530 535 534
f 537 540 539
f 537 539 538
f 541 542 543
f 541 543 544
f 537 538 542
f 537 542 541
f 540 544 543
f 540 543 539
f 537 541 544
f 537 544 540
f 538 539 543
f 538 543 542
f 545 548 547
f 545 547 546
f 549 550 551
f 549 551 552
f 545 546 550
f 545 550 549
f 548 552 551
f 548 551 547
f 545 549 552
f 545 552 548
f 546 547 551
f 546 551 550
f 553 556 555
f 553 555 554
f 557 558 559
f 557 559 560
f 553 554 558
f 553 558 557
f 556 560 559
f 556 559 555
f 553 557 560
f 553 560 556
f 554 555 559
f 554 559 558
f 561 564 563
f 561 563 562
f 565 566 567
f 565 567 568
f 561 562 566
f 561 566 565
f 564 568 567
f 564 567 563
f 561 565 568
f 561 568 564
f 562 563 567
f 562 567 566
f 569 572 571
f 569 571 570
f 573 574 575
f 573 575 576
f 569 570 574
f 569 574 573
f 572 576 575
f 572 575 571
f 569 573 576
f 569 576 572
f 570 571 575
f 570 575 574
